<mxfile host="app.diagrams.net" modified="2024-07-18T18:21:15.941Z" agent="Mozilla/5.0 (Windows NT 10.0; Win64; x64) AppleWebKit/537.36 (KHTML, like Gecko) Chrome/126.0.0.0 Safari/537.36" etag="XaZuV5zqVuYKMnGJqz9Z" version="24.7.1" type="device">
  <diagram name="Страница — 1" id="Pd4knukk0ePpNukHAaMC">
    <mxGraphModel dx="3790" dy="2223" grid="1" gridSize="10" guides="1" tooltips="1" connect="1" arrows="1" fold="1" page="1" pageScale="1" pageWidth="827" pageHeight="1169" math="0" shadow="0">
      <root>
        <mxCell id="0" />
        <mxCell id="1" parent="0" />
        <mxCell id="QuHRkAZj_M_VuZ1RQom--2" value="" style="rounded=0;whiteSpace=wrap;html=1;" vertex="1" parent="1">
          <mxGeometry x="-320" y="-120" width="1600" height="800" as="geometry" />
        </mxCell>
        <mxCell id="00e1ygg0CJTxek2ya4a2-25" value="" style="rounded=1;whiteSpace=wrap;html=1;" parent="1" vertex="1">
          <mxGeometry x="-280" y="40" width="1520" height="600" as="geometry" />
        </mxCell>
        <mxCell id="F2woGjXMJxlgT0pjgvsu-5" style="edgeStyle=orthogonalEdgeStyle;rounded=0;orthogonalLoop=1;jettySize=auto;html=1;entryX=0.5;entryY=0;entryDx=0;entryDy=0;" parent="1" source="F2woGjXMJxlgT0pjgvsu-1" target="F2woGjXMJxlgT0pjgvsu-14" edge="1">
          <mxGeometry relative="1" as="geometry" />
        </mxCell>
        <mxCell id="F2woGjXMJxlgT0pjgvsu-6" value="&lt;font style=&quot;font-size: 18px;&quot;&gt;&lt;i&gt;http://localhost:8091/&lt;/i&gt;&lt;/font&gt;" style="edgeLabel;html=1;align=center;verticalAlign=middle;resizable=0;points=[];" parent="F2woGjXMJxlgT0pjgvsu-5" vertex="1" connectable="0">
          <mxGeometry x="-0.1925" y="1" relative="1" as="geometry">
            <mxPoint x="-13" y="-19" as="offset" />
          </mxGeometry>
        </mxCell>
        <mxCell id="F2woGjXMJxlgT0pjgvsu-15" style="edgeStyle=orthogonalEdgeStyle;rounded=0;orthogonalLoop=1;jettySize=auto;html=1;entryX=0.5;entryY=0;entryDx=0;entryDy=0;" parent="1" source="F2woGjXMJxlgT0pjgvsu-1" target="F2woGjXMJxlgT0pjgvsu-13" edge="1">
          <mxGeometry relative="1" as="geometry" />
        </mxCell>
        <mxCell id="F2woGjXMJxlgT0pjgvsu-26" value="&lt;span style=&quot;font-size: 18px;&quot;&gt;&lt;i&gt;http://localhost:8090/&lt;/i&gt;&lt;/span&gt;" style="edgeLabel;html=1;align=center;verticalAlign=middle;resizable=0;points=[];" parent="F2woGjXMJxlgT0pjgvsu-15" vertex="1" connectable="0">
          <mxGeometry x="-0.3694" y="1" relative="1" as="geometry">
            <mxPoint y="-21" as="offset" />
          </mxGeometry>
        </mxCell>
        <mxCell id="F2woGjXMJxlgT0pjgvsu-1" value="&lt;font style=&quot;font-size: 18px;&quot;&gt;Browser&lt;/font&gt;" style="rounded=0;whiteSpace=wrap;html=1;" parent="1" vertex="1">
          <mxGeometry x="430" y="-100" width="160" height="100" as="geometry" />
        </mxCell>
        <mxCell id="F2woGjXMJxlgT0pjgvsu-20" style="edgeStyle=orthogonalEdgeStyle;rounded=0;orthogonalLoop=1;jettySize=auto;html=1;" parent="1" source="F2woGjXMJxlgT0pjgvsu-2" target="F2woGjXMJxlgT0pjgvsu-9" edge="1">
          <mxGeometry relative="1" as="geometry" />
        </mxCell>
        <mxCell id="F2woGjXMJxlgT0pjgvsu-27" value="&lt;font style=&quot;font-size: 18px;&quot;&gt;&lt;i&gt;producer:8090&lt;/i&gt;&lt;/font&gt;" style="edgeLabel;html=1;align=center;verticalAlign=middle;resizable=0;points=[];" parent="F2woGjXMJxlgT0pjgvsu-20" vertex="1" connectable="0">
          <mxGeometry x="-0.1048" y="2" relative="1" as="geometry">
            <mxPoint x="-20" y="-22" as="offset" />
          </mxGeometry>
        </mxCell>
        <mxCell id="F2woGjXMJxlgT0pjgvsu-2" value="&lt;div style=&quot;font-family: &amp;quot;JetBrains Mono&amp;quot;, monospace; white-space: pre;&quot;&gt;&lt;font style=&quot;font-size: 18px;&quot;&gt;&lt;span style=&quot;background-color: initial;&quot;&gt;Ingress Controller ingress-nginx&lt;/span&gt;&lt;/font&gt;&lt;span style=&quot;background-color: initial; font-size: 18px;&quot;&gt; &lt;/span&gt;&lt;/div&gt;&lt;div style=&quot;font-family: &amp;quot;JetBrains Mono&amp;quot;, monospace; white-space: pre;&quot;&gt;&lt;font style=&quot;font-size: 18px;&quot;&gt;alias: &lt;b&gt;&lt;i&gt;ingressproducer&lt;/i&gt;&lt;/b&gt;&lt;/font&gt;&lt;/div&gt;&lt;div style=&quot;font-family: &amp;quot;JetBrains Mono&amp;quot;, monospace; white-space: pre;&quot;&gt;&lt;br&gt;&lt;/div&gt;" style="rounded=0;whiteSpace=wrap;html=1;verticalAlign=bottom;" parent="1" vertex="1">
          <mxGeometry x="-200" y="40" width="440" height="140" as="geometry" />
        </mxCell>
        <mxCell id="00e1ygg0CJTxek2ya4a2-1" style="edgeStyle=orthogonalEdgeStyle;rounded=0;orthogonalLoop=1;jettySize=auto;html=1;entryX=0.5;entryY=0;entryDx=0;entryDy=0;" parent="1" source="F2woGjXMJxlgT0pjgvsu-3" target="F2woGjXMJxlgT0pjgvsu-21" edge="1">
          <mxGeometry relative="1" as="geometry" />
        </mxCell>
        <mxCell id="00e1ygg0CJTxek2ya4a2-2" value="&lt;font style=&quot;font-size: 18px;&quot;&gt;&lt;i&gt;consumer:8091&lt;/i&gt;&lt;/font&gt;" style="edgeLabel;html=1;align=center;verticalAlign=middle;resizable=0;points=[];" parent="00e1ygg0CJTxek2ya4a2-1" vertex="1" connectable="0">
          <mxGeometry x="0.2037" y="-2" relative="1" as="geometry">
            <mxPoint x="-13" y="-22" as="offset" />
          </mxGeometry>
        </mxCell>
        <mxCell id="F2woGjXMJxlgT0pjgvsu-3" value="&lt;div style=&quot;font-family: &amp;quot;JetBrains Mono&amp;quot;, monospace; white-space: pre;&quot;&gt;&lt;font style=&quot;font-size: 18px;&quot;&gt;&lt;span style=&quot;background-color: initial;&quot;&gt;Ingress Controller ingress-nginx &lt;/span&gt;&lt;/font&gt;&lt;/div&gt;&lt;div style=&quot;font-family: &amp;quot;JetBrains Mono&amp;quot;, monospace; white-space: pre;&quot;&gt;&lt;font style=&quot;font-size: 18px;&quot;&gt;alias: &lt;b&gt;&lt;i&gt;ingressconsumer&lt;/i&gt;&lt;/b&gt;&lt;/font&gt;&lt;/div&gt;&lt;div style=&quot;font-family: &amp;quot;JetBrains Mono&amp;quot;, monospace; white-space: pre;&quot;&gt;&lt;br&gt;&lt;/div&gt;" style="rounded=0;whiteSpace=wrap;html=1;verticalAlign=bottom;" parent="1" vertex="1">
          <mxGeometry x="720" y="40" width="440" height="140" as="geometry" />
        </mxCell>
        <mxCell id="F2woGjXMJxlgT0pjgvsu-8" value="&lt;b&gt;&lt;i&gt;K8s cluster&lt;/i&gt;&lt;/b&gt;" style="text;html=1;align=center;verticalAlign=middle;whiteSpace=wrap;rounded=0;fontSize=24;" parent="1" vertex="1">
          <mxGeometry x="430" y="60" width="160" height="30" as="geometry" />
        </mxCell>
        <mxCell id="F2woGjXMJxlgT0pjgvsu-9" value="&lt;font style=&quot;font-size: 18px;&quot;&gt;service producer&lt;/font&gt;" style="swimlane;fontStyle=0;childLayout=stackLayout;horizontal=1;startSize=30;horizontalStack=0;resizeParent=1;resizeParentMax=0;resizeLast=0;collapsible=1;marginBottom=0;whiteSpace=wrap;html=1;" parent="1" vertex="1">
          <mxGeometry x="-240" y="280" width="280" height="120" as="geometry" />
        </mxCell>
        <mxCell id="F2woGjXMJxlgT0pjgvsu-10" value="&lt;font style=&quot;font-size: 18px;&quot;&gt;Pod 1&lt;/font&gt;" style="text;strokeColor=none;fillColor=none;align=left;verticalAlign=middle;spacingLeft=4;spacingRight=4;overflow=hidden;points=[[0,0.5],[1,0.5]];portConstraint=eastwest;rotatable=0;whiteSpace=wrap;html=1;" parent="F2woGjXMJxlgT0pjgvsu-9" vertex="1">
          <mxGeometry y="30" width="280" height="30" as="geometry" />
        </mxCell>
        <mxCell id="F2woGjXMJxlgT0pjgvsu-11" value="&lt;font style=&quot;font-size: 18px;&quot;&gt;Pod 2&lt;/font&gt;" style="text;strokeColor=none;fillColor=none;align=left;verticalAlign=middle;spacingLeft=4;spacingRight=4;overflow=hidden;points=[[0,0.5],[1,0.5]];portConstraint=eastwest;rotatable=0;whiteSpace=wrap;html=1;" parent="F2woGjXMJxlgT0pjgvsu-9" vertex="1">
          <mxGeometry y="60" width="280" height="30" as="geometry" />
        </mxCell>
        <mxCell id="F2woGjXMJxlgT0pjgvsu-12" value="&lt;font style=&quot;font-size: 18px;&quot;&gt;...&lt;/font&gt;" style="text;strokeColor=none;fillColor=none;align=left;verticalAlign=middle;spacingLeft=4;spacingRight=4;overflow=hidden;points=[[0,0.5],[1,0.5]];portConstraint=eastwest;rotatable=0;whiteSpace=wrap;html=1;fontSize=18;" parent="F2woGjXMJxlgT0pjgvsu-9" vertex="1">
          <mxGeometry y="90" width="280" height="30" as="geometry" />
        </mxCell>
        <mxCell id="F2woGjXMJxlgT0pjgvsu-13" value="&lt;font style=&quot;font-size: 18px;&quot;&gt;Ingress &lt;b&gt;&lt;i&gt;producer&lt;/i&gt;&lt;/b&gt;&lt;/font&gt;" style="rounded=0;whiteSpace=wrap;html=1;" parent="1" vertex="1">
          <mxGeometry x="-60" y="40" width="160" height="60" as="geometry" />
        </mxCell>
        <mxCell id="F2woGjXMJxlgT0pjgvsu-14" value="&lt;font style=&quot;font-size: 18px;&quot;&gt;Ingress &lt;b&gt;&lt;i&gt;consumer&lt;/i&gt;&lt;/b&gt;&lt;/font&gt;" style="rounded=0;whiteSpace=wrap;html=1;" parent="1" vertex="1">
          <mxGeometry x="860" y="40" width="160" height="60" as="geometry" />
        </mxCell>
        <mxCell id="F2woGjXMJxlgT0pjgvsu-21" value="&lt;font style=&quot;font-size: 18px;&quot;&gt;service &lt;b&gt;&lt;i&gt;consumer&lt;/i&gt;&lt;/b&gt;&lt;/font&gt;" style="swimlane;fontStyle=0;childLayout=stackLayout;horizontal=1;startSize=30;horizontalStack=0;resizeParent=1;resizeParentMax=0;resizeLast=0;collapsible=1;marginBottom=0;whiteSpace=wrap;html=1;" parent="1" vertex="1">
          <mxGeometry x="920" y="280" width="280" height="120" as="geometry" />
        </mxCell>
        <mxCell id="F2woGjXMJxlgT0pjgvsu-22" value="&lt;font style=&quot;font-size: 18px;&quot;&gt;Pod 1&lt;/font&gt;" style="text;strokeColor=none;fillColor=none;align=left;verticalAlign=middle;spacingLeft=4;spacingRight=4;overflow=hidden;points=[[0,0.5],[1,0.5]];portConstraint=eastwest;rotatable=0;whiteSpace=wrap;html=1;" parent="F2woGjXMJxlgT0pjgvsu-21" vertex="1">
          <mxGeometry y="30" width="280" height="30" as="geometry" />
        </mxCell>
        <mxCell id="F2woGjXMJxlgT0pjgvsu-23" value="&lt;font style=&quot;font-size: 18px;&quot;&gt;Pod 2&lt;/font&gt;" style="text;strokeColor=none;fillColor=none;align=left;verticalAlign=middle;spacingLeft=4;spacingRight=4;overflow=hidden;points=[[0,0.5],[1,0.5]];portConstraint=eastwest;rotatable=0;whiteSpace=wrap;html=1;" parent="F2woGjXMJxlgT0pjgvsu-21" vertex="1">
          <mxGeometry y="60" width="280" height="30" as="geometry" />
        </mxCell>
        <mxCell id="F2woGjXMJxlgT0pjgvsu-24" value="&lt;font style=&quot;font-size: 18px;&quot;&gt;...&lt;/font&gt;" style="text;strokeColor=none;fillColor=none;align=left;verticalAlign=middle;spacingLeft=4;spacingRight=4;overflow=hidden;points=[[0,0.5],[1,0.5]];portConstraint=eastwest;rotatable=0;whiteSpace=wrap;html=1;fontSize=18;" parent="F2woGjXMJxlgT0pjgvsu-21" vertex="1">
          <mxGeometry y="90" width="280" height="30" as="geometry" />
        </mxCell>
        <mxCell id="00e1ygg0CJTxek2ya4a2-7" value="&lt;font style=&quot;font-size: 18px;&quot;&gt;service &lt;i&gt;&lt;b&gt;kafka&lt;/b&gt;&lt;/i&gt;&lt;/font&gt;" style="swimlane;fontStyle=0;childLayout=stackLayout;horizontal=1;startSize=30;horizontalStack=0;resizeParent=1;resizeParentMax=0;resizeLast=0;collapsible=1;marginBottom=0;whiteSpace=wrap;html=1;" parent="1" vertex="1">
          <mxGeometry x="340" y="320" width="280" height="120" as="geometry" />
        </mxCell>
        <mxCell id="00e1ygg0CJTxek2ya4a2-8" value="&lt;font style=&quot;font-size: 18px;&quot;&gt;Pod 1&lt;/font&gt;" style="text;strokeColor=none;fillColor=none;align=left;verticalAlign=middle;spacingLeft=4;spacingRight=4;overflow=hidden;points=[[0,0.5],[1,0.5]];portConstraint=eastwest;rotatable=0;whiteSpace=wrap;html=1;" parent="00e1ygg0CJTxek2ya4a2-7" vertex="1">
          <mxGeometry y="30" width="280" height="30" as="geometry" />
        </mxCell>
        <mxCell id="00e1ygg0CJTxek2ya4a2-9" value="&lt;font style=&quot;font-size: 18px;&quot;&gt;Pod 2&lt;/font&gt;" style="text;strokeColor=none;fillColor=none;align=left;verticalAlign=middle;spacingLeft=4;spacingRight=4;overflow=hidden;points=[[0,0.5],[1,0.5]];portConstraint=eastwest;rotatable=0;whiteSpace=wrap;html=1;" parent="00e1ygg0CJTxek2ya4a2-7" vertex="1">
          <mxGeometry y="60" width="280" height="30" as="geometry" />
        </mxCell>
        <mxCell id="00e1ygg0CJTxek2ya4a2-10" value="&lt;font style=&quot;font-size: 18px;&quot;&gt;...&lt;/font&gt;" style="text;strokeColor=none;fillColor=none;align=left;verticalAlign=middle;spacingLeft=4;spacingRight=4;overflow=hidden;points=[[0,0.5],[1,0.5]];portConstraint=eastwest;rotatable=0;whiteSpace=wrap;html=1;fontSize=18;" parent="00e1ygg0CJTxek2ya4a2-7" vertex="1">
          <mxGeometry y="90" width="280" height="30" as="geometry" />
        </mxCell>
        <mxCell id="00e1ygg0CJTxek2ya4a2-11" style="edgeStyle=orthogonalEdgeStyle;rounded=0;orthogonalLoop=1;jettySize=auto;html=1;entryX=0.25;entryY=0;entryDx=0;entryDy=0;" parent="1" source="F2woGjXMJxlgT0pjgvsu-11" target="00e1ygg0CJTxek2ya4a2-7" edge="1">
          <mxGeometry relative="1" as="geometry">
            <Array as="points">
              <mxPoint x="190" y="355" />
              <mxPoint x="190" y="280" />
              <mxPoint x="410" y="280" />
            </Array>
          </mxGeometry>
        </mxCell>
        <mxCell id="00e1ygg0CJTxek2ya4a2-14" value="&lt;font style=&quot;font-size: 18px;&quot;&gt;&lt;i&gt;kafka:9092&lt;/i&gt;&lt;/font&gt;" style="edgeLabel;html=1;align=center;verticalAlign=middle;resizable=0;points=[];" parent="00e1ygg0CJTxek2ya4a2-11" vertex="1" connectable="0">
          <mxGeometry x="0.2326" y="-3" relative="1" as="geometry">
            <mxPoint y="-23" as="offset" />
          </mxGeometry>
        </mxCell>
        <mxCell id="00e1ygg0CJTxek2ya4a2-12" style="edgeStyle=orthogonalEdgeStyle;rounded=0;orthogonalLoop=1;jettySize=auto;html=1;entryX=0.75;entryY=0;entryDx=0;entryDy=0;" parent="1" source="F2woGjXMJxlgT0pjgvsu-23" target="00e1ygg0CJTxek2ya4a2-7" edge="1">
          <mxGeometry relative="1" as="geometry">
            <Array as="points">
              <mxPoint x="770" y="355" />
              <mxPoint x="770" y="280" />
              <mxPoint x="550" y="280" />
            </Array>
          </mxGeometry>
        </mxCell>
        <mxCell id="00e1ygg0CJTxek2ya4a2-13" value="&lt;font style=&quot;font-size: 18px;&quot;&gt;&lt;i&gt;kafka:9092&lt;/i&gt;&lt;/font&gt;" style="edgeLabel;html=1;align=center;verticalAlign=middle;resizable=0;points=[];" parent="00e1ygg0CJTxek2ya4a2-12" vertex="1" connectable="0">
          <mxGeometry x="0.2067" y="3" relative="1" as="geometry">
            <mxPoint y="-23" as="offset" />
          </mxGeometry>
        </mxCell>
        <mxCell id="00e1ygg0CJTxek2ya4a2-19" value="&lt;font style=&quot;font-size: 18px;&quot;&gt;service &lt;b&gt;&lt;i&gt;postgres&lt;/i&gt;&lt;/b&gt;&lt;/font&gt;" style="swimlane;fontStyle=0;childLayout=stackLayout;horizontal=1;startSize=30;horizontalStack=0;resizeParent=1;resizeParentMax=0;resizeLast=0;collapsible=1;marginBottom=0;whiteSpace=wrap;html=1;" parent="1" vertex="1">
          <mxGeometry x="680" y="480" width="280" height="120" as="geometry" />
        </mxCell>
        <mxCell id="00e1ygg0CJTxek2ya4a2-20" value="&lt;font style=&quot;font-size: 18px;&quot;&gt;Pod 1&lt;/font&gt;" style="text;strokeColor=none;fillColor=none;align=left;verticalAlign=middle;spacingLeft=4;spacingRight=4;overflow=hidden;points=[[0,0.5],[1,0.5]];portConstraint=eastwest;rotatable=0;whiteSpace=wrap;html=1;" parent="00e1ygg0CJTxek2ya4a2-19" vertex="1">
          <mxGeometry y="30" width="280" height="30" as="geometry" />
        </mxCell>
        <mxCell id="00e1ygg0CJTxek2ya4a2-21" value="&lt;font style=&quot;font-size: 18px;&quot;&gt;Pod 2&lt;/font&gt;" style="text;strokeColor=none;fillColor=none;align=left;verticalAlign=middle;spacingLeft=4;spacingRight=4;overflow=hidden;points=[[0,0.5],[1,0.5]];portConstraint=eastwest;rotatable=0;whiteSpace=wrap;html=1;" parent="00e1ygg0CJTxek2ya4a2-19" vertex="1">
          <mxGeometry y="60" width="280" height="30" as="geometry" />
        </mxCell>
        <mxCell id="00e1ygg0CJTxek2ya4a2-22" value="&lt;font style=&quot;font-size: 18px;&quot;&gt;...&lt;/font&gt;" style="text;strokeColor=none;fillColor=none;align=left;verticalAlign=middle;spacingLeft=4;spacingRight=4;overflow=hidden;points=[[0,0.5],[1,0.5]];portConstraint=eastwest;rotatable=0;whiteSpace=wrap;html=1;fontSize=18;" parent="00e1ygg0CJTxek2ya4a2-19" vertex="1">
          <mxGeometry y="90" width="280" height="30" as="geometry" />
        </mxCell>
        <mxCell id="00e1ygg0CJTxek2ya4a2-23" style="edgeStyle=orthogonalEdgeStyle;rounded=0;orthogonalLoop=1;jettySize=auto;html=1;entryX=0.523;entryY=0.003;entryDx=0;entryDy=0;entryPerimeter=0;" parent="1" source="F2woGjXMJxlgT0pjgvsu-21" target="00e1ygg0CJTxek2ya4a2-19" edge="1">
          <mxGeometry relative="1" as="geometry">
            <Array as="points">
              <mxPoint x="1060" y="450" />
              <mxPoint x="826" y="450" />
            </Array>
          </mxGeometry>
        </mxCell>
        <mxCell id="00e1ygg0CJTxek2ya4a2-24" value="&lt;i&gt;&lt;font style=&quot;font-size: 18px;&quot;&gt;postgres:5432&lt;/font&gt;&lt;/i&gt;" style="edgeLabel;html=1;align=center;verticalAlign=middle;resizable=0;points=[];" parent="00e1ygg0CJTxek2ya4a2-23" vertex="1" connectable="0">
          <mxGeometry x="-0.0059" relative="1" as="geometry">
            <mxPoint x="-14" y="-20" as="offset" />
          </mxGeometry>
        </mxCell>
      </root>
    </mxGraphModel>
  </diagram>
</mxfile>
